<?xml version="1.0" encoding="UTF-8"?>
<svg id="Calque_1" xmlns="http://www.w3.org/2000/svg" width="20cm" height="20cm" version="1.1" viewBox="0 0 566.9 566.9">
  <!-- Generator: Adobe Illustrator 30.2.1, SVG Export Plug-In . SVG Version: 2.1.1 Build 1)  -->
  <defs>
    <style>
      .st0 {
        fill: #fff;
      }
    </style>
  </defs>
  <path class="st0" d="M304.7,338.4c-.7-20.3-6.6-40-16.6-57.7l-4.6-8.2c-2-3.5-3.7-7.1-5.3-10.7,1-1.6,10.5-17.7,10.5-30.6,3.8,8.1,7.1,16.7,8.4,20.1,10.4,27.1,19.8,53.5,31.5,79.6,5.6,12.4,18.6,20,31.3,16.1,8.4-2.6,15.5-10.1,19-18.6,16-39.4,18.8-43.6,37.3-81.9,8.4-17.4,15-37.4,20.4-35.9,10.3,2.9-1.6,32.4-5.9,41.4,0,0-55.7,133.4,28.8,138.4,4.2.2,7.7-3.1,7.7-7.3s0-9.7,0-15.2v-151c0-7.9-.6-15.8-2.6-22.7-3.8-13.1-15.1-19-27.9-18.4-15,.7-26.7,7.4-33,21.6l-36.5,82.7c-.4.9-1.5,2.8-3.7,2.8s-2.4-2.2-2.8-3.3c-8.9-25.5-19.4-51.5-30-76.5-11.4-26.9-33.8-29.7-61-26.8-9.6,1-16,9.4-16,19.1v12.4c-7.6,2.8-13.8,6.5-17.4,8.9-.7-1.2-1.5-2.5-2.3-3.7-12.4-19.2-31.8-35-54.5-36.7-24.1-1.8-47.1-.9-71.3-.8-4.6,0-8,4.1-7.2,8.6s.7,4.5.7,6.6v185.5s-.8,6.1-.8,6.1c-.5,4.4,3,8.3,7.4,8.2,52.5-1,94.9,12.4,126.6-38.8,1.5-2.5,2.9-5.1,4.3-7.6,5.6,11.3,11.3,31.5,13.9,41.1s3.7,5.7,7.1,5.9c38,2.3,45.4-26.6,44.5-52.9ZM182.8,353.6c-35.8,8.4-65.3-88.3-41.4-131,2.9-5.2,8.9-9.9,13.3-10.8,19-3.8,33.9,21.1,39.7,37.6,6.3,17.9,9.4,36.6,9.5,55.8,0,15.7-4.9,44.6-21.1,48.4ZM249.6,256.9l-4.9,5.9-4.8-3.6c-7-5.2-16.7-14.2-12.7-23.9.9-2.2,2.1-3.9,3.4-5.9-3.2,2.5-5.6,6-6.8,9.9s-.8,4.4-.3,6.6c1.7,7.5,8.3,12.3,14.2,16.4,6.1,4.2,11.8,8.1,15.6,14.7,0,.1.1.2.2.4.2.4.4.8.6,1.2,1.7,3.6,2.4,7.3,2.5,11.4,1.3-6,.2-12-2.8-17.1,0-.2-.2-.3-.3-.4-.4-.6-.7-1.2-1.2-1.7-1.8-2.4-3.8-4.3-6-6.3,1.3-2.4,3.3-4.4,5.5-6.3.6-.5,1.1-.9,1.7-1.4,2.4-1.7,4.9-3.2,7.3-4.7,4.2-2.5,8.2-5.3,11.6-8.7,1.1-1,2.1-2.1,3-3.2,6.7-7.9,6.9-13.9,8-18.7.9-3.8,2.4-6.9,8.3-9.8-4.6,4-5.9,8.3-6.2,13.5,0,0,0,.2,0,.3-.5,8.4-2.3,16.1-5.7,23.4-1.2,2.7-2.4,5.4-3.5,8.2-3,7.3-5.5,14.9-7.7,22.9-1.4,5.1-2.9,9-4.9,12.5,1.5-5,2.5-9.2,3.1-13.5l1.5-10.9c.8-5.7,1.5-10.3,2.7-15l.4-1.8-.9,1.6c-2,3.3-3.6,9.9-4.4,14.5l-2.1,12.7c0,.6-.2,1.2-.3,1.7-.4,2.5-.8,5-1.7,7.2l-3.1,7.2c-2.7,6.3-4.1,50.3-3.8,59.9v2.3c0,0,.5-2.3.5-2.3.2-1.1.4-2.2.4-3.2l2.4-30.7c.5-6.3,1.4-11.7,2.8-16.9.5-1.9,1.1-3.7,1.9-5.5,0,0,.2.2.2.3h0c2,2.6,3.1,6,2.7,9.2-1.3,5.4-2.6,11.3-3.4,17.4l-3.8,27.5-3.2,25c-2.5-10.8-7.6-31.7-9.5-34.7-1-2.6-2.1-4.9-3.4-7.1-.9-1.4-1.8-2.8-2.8-3.9l-1-1.1c-.7-.7-.7-1.8,0-2.6s.7-.8,1.1-1.2c.8-1,2.3-.9,3.1,0s1.4,2.1,2,3.1c2,3.4,3.3,6.9,4.8,11v.3c0,0,.6-.1.6-.1l-2.9-18-.3-1.7-2.1-12.1c.3-6,0-12-.5-17.4,0,0,0,.2,0,.3.5,1.3.9,2.5,1.4,3.8,2,5.4,3.5,10.7,4.5,16.1.3,1.6.6,3.1.8,4.7l.4,2.4.2-2.4c.3-4,.4-7.9.2-12.2,0-1.4-.2-2.7-.3-4.1-.6-6.5-2.6-9.4-5-12.8-1.8-2.6-3.9-5.5-5.5-10.6-1.8-5.5-4.7-13.2-9.9-16.4-3.9-2.4-7-4.7-9.5-7.8-3.5-4.4-4.5-9.8-2.6-14.8,2.2-5.7,7.3-11.4,15.8-17.4,1-.7,2-1.4,2.9-2,5.1-3.3,10.1-6.1,15.4-8.3,1.7-.7,3.4-1.4,5.1-2,12.8-4.5,23.9-4.8,35.9-.9-6,.9-11.3,2.7-15.4,6.5-1.7,1.5-3.1,3.4-4.3,5.7-1.7,3.4-2.8,7.4-3.9,11.4-1,3.7-2,7.4-3.5,10.7-1.2,2.6-8,7.1-10.9,8.6,0-3.3-.4-22.4-3.1-25.4-.2-.3-.5-.4-.7-.4-2.4-.1-3.1,13.1-3.3,22.3,0,4.1,0,7.4,0,8.4Z"/>
</svg>